<svg width="135" height="40" viewBox="0 0 135 40" xmlns="http://www.w3.org/2000/svg">
  <rect width="135" height="40" rx="5" fill="#000"/>
  <g fill="#FFF">
    <!-- Apple logo -->
    <path d="M31.5 20.3c0-2.9 2.4-4.3 2.5-4.4-1.4-2-3.5-2.3-4.2-2.3-1.8-.2-3.5 1-4.4 1s-2.3-.9-3.8-.9c-2 0-3.8 1.1-4.8 2.9-2 3.5-.5 8.7 1.5 11.6 1 1.4 2.1 3 3.7 2.9 1.5 0 2-.9 3.8-.9s2.3.9 3.8.9c1.6 0 2.6-1.4 3.6-2.8 1.1-1.6 1.6-3.2 1.6-3.3 0 0-3.1-1.2-3.1-4.7zm-2.9-8.6c.8-1 1.4-2.4 1.2-3.8-1.2 0-2.6.8-3.5 1.8-.8.9-1.4 2.3-1.3 3.6 1.3.1 2.7-.7 3.6-1.6z"/>
    <!-- Download on the -->
    <text x="45" y="15" font-family="system-ui" font-size="10" font-weight="400">Download on the</text>
    <!-- App Store -->
    <text x="45" y="30" font-family="system-ui" font-size="14" font-weight="600">App Store</text>
  </g>
</svg>